<svg width="16" height="16" viewBox="0 0 16 16" fill="none" xmlns="http://www.w3.org/2000/svg">
<path d="M1.77778 16H14.2222C14.6937 16 15.1459 15.8127 15.4793 15.4793C15.8127 15.1459 16 14.6937 16 14.2222V4.44444L11.5556 0H1.77778C1.30628 0 0.854097 0.187301 0.520699 0.520699C0.187301 0.854097 0 1.30628 0 1.77778V14.2222C0 14.6937 0.187301 15.1459 0.520699 15.4793C0.854097 15.8127 1.30628 16 1.77778 16ZM3.55556 1.77778H7.11111V3.55556H8.88889V1.77778H10.6667V5.33333H3.55556V1.77778ZM3.55556 8.88889H12.4444V14.2222H3.55556V8.88889Z" fill="white"/>
</svg>
