<svg width="16" height="16" viewBox="0 0 16 16" fill="none" xmlns="http://www.w3.org/2000/svg">
<path fill-rule="evenodd" clip-rule="evenodd" d="M8 2.5C11.0376 2.5 13.5 4.96243 13.5 8C13.5 11.0376 11.0376 13.5 8 13.5C4.96243 13.5 2.5 11.0376 2.5 8C2.5 4.96243 4.96243 2.5 8 2.5ZM14.5 8C14.5 4.41015 11.5899 1.5 8 1.5C4.41015 1.5 1.5 4.41015 1.5 8C1.5 11.5899 4.41015 14.5 8 14.5C11.5899 14.5 14.5 11.5899 14.5 8Z" fill="white"/>
<path fill-rule="evenodd" clip-rule="evenodd" d="M7.97269 5.52779C7.77743 5.33253 7.46085 5.33253 7.26559 5.52779L5.14684 7.64654C4.95158 7.84181 4.95158 8.15839 5.14684 8.35365L7.26559 10.4724C7.46085 10.6677 7.77743 10.6677 7.97269 10.4724C8.16796 10.2771 8.16796 9.96056 7.97269 9.76529L6.2075 8.0001L7.97269 6.2349C8.16796 6.03964 8.16796 5.72306 7.97269 5.52779Z" fill="white"/>
<path fill-rule="evenodd" clip-rule="evenodd" d="M11 8C11 7.72386 10.7761 7.5 10.5 7.5H5.5C5.22386 7.5 5 7.72386 5 8C5 8.27614 5.22386 8.5 5.5 8.5H10.5C10.7761 8.5 11 8.27614 11 8Z" fill="white"/>
</svg>
