<svg width="16" height="16" viewBox="0 0 16 16" fill="none" xmlns="http://www.w3.org/2000/svg">
<g clip-path="url(#clip0_1644_6529)">
<path d="M14.8571 7.99993C13.9524 6.43908 12.8185 5.27176 11.4554 4.49795C11.8185 5.18578 12 5.92982 12 6.73009C12 7.95363 11.6086 9.00026 10.8259 9.86997C10.0432 10.7397 9.10119 11.1745 8 11.1745C6.89881 11.1745 5.95685 10.7397 5.17411 9.86997C4.39137 9.00026 4 7.95363 4 6.73009C4 5.92982 4.18155 5.18578 4.54464 4.49795C3.18155 5.27176 2.04762 6.43908 1.14286 7.99993C1.93452 9.35575 2.92708 10.4354 4.12054 11.239C5.31399 12.0426 6.60714 12.4444 8 12.4444C9.39286 12.4444 10.686 12.0426 11.8795 11.239C13.0729 10.4354 14.0655 9.35575 14.8571 7.99993ZM8.42857 4.19041C8.42857 4.05813 8.38691 3.9457 8.30357 3.8531C8.22024 3.76051 8.11905 3.71422 8 3.71422C7.25595 3.71422 6.61756 4.01018 6.08482 4.60211C5.55208 5.19404 5.28571 5.90337 5.28571 6.73009C5.28571 6.86236 5.32738 6.9748 5.41071 7.06739C5.49405 7.15998 5.59524 7.20628 5.71429 7.20628C5.83333 7.20628 5.93452 7.15998 6.01786 7.06739C6.10119 6.9748 6.14286 6.86236 6.14286 6.73009C6.14286 6.16131 6.32441 5.67519 6.6875 5.27176C7.0506 4.86832 7.4881 4.6666 8 4.6666C8.11905 4.6666 8.22024 4.6203 8.30357 4.52771C8.38691 4.43512 8.42857 4.32268 8.42857 4.19041ZM16 7.99993C16 8.2248 15.9405 8.45297 15.8214 8.68445C14.9881 10.2056 13.8676 11.4242 12.4598 12.3402C11.0521 13.2562 9.56548 13.7142 8 13.7142C6.43452 13.7142 4.94792 13.2546 3.54018 12.3352C2.13244 11.4159 1.0119 10.199 0.178571 8.68445C0.0595238 8.45297 0 8.2248 0 7.99993C0 7.77506 0.0595238 7.54689 0.178571 7.31541C1.0119 5.80086 2.13244 4.58393 3.54018 3.66461C4.94792 2.7453 6.43452 2.28564 8 2.28564C9.56548 2.28564 11.0521 2.7453 12.4598 3.66461C13.8676 4.58393 14.9881 5.80086 15.8214 7.31541C15.9405 7.54689 16 7.77506 16 7.99993Z" fill="#777A88"/>
</g>
<defs>
<clipPath id="clip0_1644_6529">
<rect width="16" height="16" fill="white"/>
</clipPath>
</defs>
</svg>
